<svg width="304" height="185" viewBox="0 0 304 185" fill="none" xmlns="http://www.w3.org/2000/svg">
<path d="M90.0114 3.36364H93.0455L96.25 11.1818H96.3864L99.5909 3.36364H102.625V15H100.239V7.42614H100.142L97.1307 14.9432H95.5057L92.4943 7.39773H92.3977V15H90.0114V3.36364ZM107.095 15.1648C106.538 15.1648 106.042 15.0682 105.607 14.875C105.171 14.678 104.826 14.3883 104.572 14.0057C104.322 13.6193 104.197 13.1383 104.197 12.5625C104.197 12.0777 104.286 11.6705 104.464 11.3409C104.643 11.0114 104.885 10.7462 105.192 10.5455C105.499 10.3447 105.847 10.1932 106.237 10.0909C106.631 9.98864 107.044 9.91667 107.476 9.875C107.983 9.82197 108.393 9.77273 108.703 9.72727C109.014 9.67803 109.239 9.60606 109.379 9.51136C109.519 9.41667 109.589 9.27652 109.589 9.09091V9.05682C109.589 8.69697 109.476 8.41856 109.249 8.22159C109.025 8.02462 108.707 7.92614 108.294 7.92614C107.858 7.92614 107.512 8.02273 107.254 8.21591C106.997 8.4053 106.826 8.64394 106.743 8.93182L104.504 8.75C104.618 8.2197 104.841 7.76136 105.175 7.375C105.508 6.98485 105.938 6.68561 106.464 6.47727C106.995 6.26515 107.608 6.15909 108.305 6.15909C108.79 6.15909 109.254 6.21591 109.697 6.32955C110.144 6.44318 110.54 6.61932 110.885 6.85795C111.233 7.09659 111.508 7.40341 111.709 7.77841C111.91 8.14962 112.01 8.5947 112.01 9.11364V15H109.714V13.7898H109.646C109.506 14.0625 109.319 14.303 109.084 14.5114C108.849 14.7159 108.567 14.8769 108.237 14.9943C107.908 15.108 107.527 15.1648 107.095 15.1648ZM107.788 13.4943C108.144 13.4943 108.459 13.4242 108.732 13.2841C109.004 13.1402 109.218 12.947 109.374 12.7045C109.529 12.4621 109.607 12.1875 109.607 11.8807V10.9545C109.531 11.0038 109.427 11.0492 109.294 11.0909C109.165 11.1288 109.019 11.1648 108.857 11.1989C108.694 11.2292 108.531 11.2576 108.368 11.2841C108.205 11.3068 108.057 11.3277 107.925 11.3466C107.641 11.3883 107.393 11.4545 107.18 11.5455C106.968 11.6364 106.804 11.7595 106.686 11.9148C106.569 12.0663 106.51 12.2557 106.51 12.483C106.51 12.8125 106.629 13.0644 106.868 13.2386C107.11 13.4091 107.417 13.4943 107.788 13.4943ZM116.081 12.4886L116.087 9.58523H116.439L119.234 6.27273H122.013L118.257 10.6591H117.683L116.081 12.4886ZM113.888 15V3.36364H116.308V15H113.888ZM119.342 15L116.774 11.1989L118.388 9.48864L122.178 15H119.342ZM126.818 15.1705C125.92 15.1705 125.148 14.9886 124.5 14.625C123.856 14.2576 123.36 13.7386 123.011 13.0682C122.663 12.3939 122.489 11.5966 122.489 10.6761C122.489 9.77841 122.663 8.99053 123.011 8.3125C123.36 7.63447 123.85 7.10606 124.483 6.72727C125.119 6.34848 125.866 6.15909 126.722 6.15909C127.297 6.15909 127.833 6.25189 128.33 6.4375C128.83 6.61932 129.265 6.89394 129.636 7.26136C130.011 7.62879 130.303 8.09091 130.511 8.64773C130.72 9.20076 130.824 9.84848 130.824 10.5909V11.2557H123.455V9.75568H128.545C128.545 9.4072 128.47 9.09848 128.318 8.82955C128.167 8.56061 127.956 8.35038 127.688 8.19886C127.422 8.04356 127.114 7.96591 126.761 7.96591C126.394 7.96591 126.068 8.05114 125.784 8.22159C125.504 8.38826 125.284 8.61364 125.125 8.89773C124.966 9.17803 124.884 9.49053 124.881 9.83523V11.2614C124.881 11.6932 124.96 12.0663 125.119 12.3807C125.282 12.6951 125.511 12.9375 125.807 13.108C126.102 13.2784 126.453 13.3636 126.858 13.3636C127.127 13.3636 127.373 13.3258 127.597 13.25C127.82 13.1742 128.011 13.0606 128.17 12.9091C128.33 12.7576 128.451 12.572 128.534 12.3523L130.773 12.5C130.659 13.0379 130.426 13.5076 130.074 13.9091C129.725 14.3068 129.275 14.6174 128.722 14.8409C128.172 15.0606 127.538 15.1705 126.818 15.1705ZM137.828 15L135.453 6.27273H137.902L139.254 12.1364H139.334L140.743 6.27273H143.146L144.578 12.1023H144.652L145.982 6.27273H148.425L146.055 15H143.493L141.993 9.51136H141.885L140.385 15H137.828ZM149.716 15V6.27273H152.136V15H149.716ZM150.932 5.14773C150.572 5.14773 150.263 5.02841 150.006 4.78977C149.752 4.54735 149.625 4.25758 149.625 3.92045C149.625 3.58712 149.752 3.30114 150.006 3.0625C150.263 2.82008 150.572 2.69886 150.932 2.69886C151.292 2.69886 151.598 2.82008 151.852 3.0625C152.11 3.30114 152.239 3.58712 152.239 3.92045C152.239 4.25758 152.11 4.54735 151.852 4.78977C151.598 5.02841 151.292 5.14773 150.932 5.14773ZM158.717 6.27273V8.09091H153.462V6.27273H158.717ZM154.655 4.18182H157.075V12.3182C157.075 12.5417 157.109 12.7159 157.178 12.8409C157.246 12.9621 157.34 13.0473 157.462 13.0966C157.587 13.1458 157.731 13.1705 157.893 13.1705C158.007 13.1705 158.121 13.161 158.234 13.142C158.348 13.1193 158.435 13.1023 158.496 13.0909L158.876 14.892C158.755 14.9299 158.585 14.9735 158.365 15.0227C158.145 15.0758 157.878 15.108 157.564 15.1193C156.981 15.142 156.469 15.0644 156.03 14.8864C155.594 14.7083 155.255 14.4318 155.013 14.0568C154.77 13.6818 154.651 13.2083 154.655 12.6364V4.18182ZM162.902 9.95455V15H160.482V3.36364H162.834V7.8125H162.936C163.133 7.29735 163.451 6.89394 163.891 6.60227C164.33 6.30682 164.881 6.15909 165.544 6.15909C166.15 6.15909 166.679 6.29167 167.129 6.55682C167.584 6.81818 167.936 7.19508 168.186 7.6875C168.44 8.17614 168.565 8.76136 168.561 9.44318V15H166.141V9.875C166.144 9.33712 166.008 8.91856 165.732 8.61932C165.459 8.32008 165.076 8.17045 164.584 8.17045C164.254 8.17045 163.963 8.24053 163.709 8.38068C163.459 8.52083 163.262 8.72538 163.118 8.99432C162.978 9.25947 162.906 9.57955 162.902 9.95455Z" fill="white"/>
<path d="M200.309 15V3.36364H202.73V7.73864H202.804C202.91 7.50379 203.063 7.26515 203.264 7.02273C203.468 6.77652 203.733 6.57197 204.059 6.40909C204.389 6.24242 204.798 6.15909 205.286 6.15909C205.923 6.15909 206.51 6.32576 207.048 6.65909C207.586 6.98864 208.016 7.48674 208.338 8.15341C208.66 8.81629 208.821 9.64773 208.821 10.6477C208.821 11.6212 208.663 12.4432 208.349 13.1136C208.038 13.7803 207.614 14.286 207.076 14.6307C206.542 14.9716 205.944 15.142 205.281 15.142C204.811 15.142 204.411 15.0644 204.082 14.9091C203.756 14.7538 203.489 14.5587 203.281 14.3239C203.072 14.0852 202.913 13.8447 202.804 13.6023H202.696V15H200.309ZM202.679 10.6364C202.679 11.1553 202.751 11.608 202.894 11.9943C203.038 12.3807 203.247 12.6818 203.519 12.8977C203.792 13.1098 204.124 13.2159 204.514 13.2159C204.908 13.2159 205.241 13.108 205.514 12.892C205.786 12.6723 205.993 12.3693 206.133 11.983C206.277 11.5928 206.349 11.1439 206.349 10.6364C206.349 10.1326 206.279 9.68939 206.139 9.30682C205.999 8.92424 205.792 8.625 205.519 8.40909C205.247 8.19318 204.911 8.08523 204.514 8.08523C204.12 8.08523 203.786 8.18939 203.514 8.39773C203.245 8.60606 203.038 8.90151 202.894 9.28409C202.751 9.66667 202.679 10.1174 202.679 10.6364ZM211.649 18.2727C211.342 18.2727 211.054 18.2481 210.785 18.1989C210.52 18.1534 210.3 18.0947 210.126 18.0227L210.671 16.2159C210.956 16.303 211.211 16.3504 211.438 16.358C211.67 16.3655 211.868 16.3125 212.035 16.1989C212.206 16.0852 212.344 15.892 212.45 15.6193L212.592 15.25L209.461 6.27273H212.007L213.813 12.6818H213.904L215.728 6.27273H218.291L214.899 15.9432C214.736 16.4129 214.514 16.822 214.234 17.1705C213.957 17.5227 213.607 17.7936 213.183 17.983C212.759 18.1761 212.247 18.2727 211.649 18.2727Z" fill="white"/>
<path d="M178.261 1.90897C181.319 0.380369 183.832 2.23672 184.816 3.5477C185.799 2.23672 188.313 0.380369 191.37 1.90897C195.303 3.87544 194.32 8.79161 191.37 11.7413C189.931 13.1808 187.396 15.7156 185.542 17.1255C185.335 17.2828 185.081 17.3657 184.821 17.3608C184.561 17.356 184.311 17.2636 184.11 17.0986C182.41 15.7267 179.68 13.1605 178.261 11.7413C175.311 8.79161 174.328 3.87544 178.261 1.90897Z" fill="#F8312F"/>
<path d="M184.816 3.54759V5.54684C185.648 3.78685 187.716 1.43692 191.146 1.80202C188.19 0.471379 185.775 2.26873 184.816 3.54759ZM182.158 1.60538C181.053 1.2206 179.719 1.17931 178.261 1.90887C174.328 3.87534 175.311 8.79151 178.261 11.7412C179.68 13.1604 182.41 15.7266 184.11 17.0985C184.311 17.2634 184.561 17.3556 184.821 17.3604C185.081 17.3652 185.335 17.2821 185.542 17.1248C185.709 16.9982 185.881 16.8626 186.057 16.7197C184.186 15.3149 181.56 13.102 180.135 11.8284C176.885 8.92392 175.802 4.08378 180.135 2.14747C180.775 1.8562 181.458 1.67302 182.158 1.60538Z" fill="#CA0B4A"/>
<path d="M188.15 8.94514C189.039 9.45848 190.461 8.65951 191.327 7.16059C192.192 5.66167 192.173 4.03041 191.284 3.51707C190.395 3.00373 188.972 3.8027 188.107 5.30162C187.241 6.80054 187.261 8.4318 188.15 8.94514Z" fill="#F37366"/>
<path d="M263.808 108.784L150.858 117.353L37.9071 125.93L12.9535 85.6921L31.5538 42.1457L144.497 33.5691L257.448 25L282.409 65.2378L263.808 108.784Z" fill="#FAFF00"/>
<path d="M40.1228 57.4977L57.0575 56.2089L60.9011 106.87L43.9665 108.159L40.1228 57.4977Z" fill="black"/>
<path d="M63.9309 55.6889L80.8656 54.4002L102.985 79.2181L103.49 79.1804L101.493 52.8401L118.428 51.5513L122.272 102.212L105.337 103.501L83.3602 79.5497L82.7799 79.5949L84.7168 105.069L67.7821 106.357L63.9385 55.6964L63.9309 55.6889Z" fill="black"/>
<path d="M181.901 71.8473C183.167 88.4881 169.594 98.6173 158.96 99.4237L128.783 101.715L124.94 51.0539L155.696 48.7176C168.147 47.7755 180.733 56.3521 181.909 71.8398L181.901 71.8473ZM164.816 73.0683C164.198 64.8911 158.801 61.9518 150.986 62.5472L142.884 63.1652L144.7 87.0486L153.383 86.3929C160.475 85.8578 165.396 80.6802 164.816 73.0758V73.0683Z" fill="black"/>
<path d="M185.436 46.4642L202.37 45.1754L206.214 95.8363L189.279 97.125L185.436 46.4642Z" fill="black"/>
<path d="M227.912 56.631L228.311 61.9141L256.099 59.8039L257.116 73.1888L229.329 75.2991L229.736 80.6576L257.523 78.5473L258.533 91.8645L213.811 95.2559L209.967 44.5951L254.689 41.2036L255.699 54.5207L227.912 56.631Z" fill="black"/>
<path d="M4 132.381C4 122.757 11.838 114.964 21.4622 114.964C26.4439 114.964 30.898 117.044 34.086 120.33L26.2028 128.311C25.0421 126.955 23.3464 126.133 21.4622 126.133C18.0256 126.133 15.222 128.937 15.222 132.374C15.222 135.81 18.0256 138.667 21.4622 138.667C23.3012 138.667 24.9969 137.845 26.1048 136.534L34.086 144.47C30.8905 147.763 26.3912 149.836 21.4622 149.836C11.838 149.836 4 142.051 4 132.374V132.381Z" stroke="black" stroke-width="6.84"/>
<path d="M53.6359 136.828H48.3151V149.361H36.9951V115.492H60.9464C67.8197 115.492 71.9799 119.456 71.9799 126.231C71.9799 130.731 68.9804 134.356 64.9634 135.954L73.0878 149.354H60.7956L53.6359 136.82V136.828ZM48.3151 127.972H58.8135C59.8762 127.972 60.6524 127.249 60.6524 126.133C60.6524 124.92 59.8762 124.392 58.8135 124.392H48.3151V127.972Z" stroke="black" stroke-width="6.84"/>
<path d="M88.0328 124.392V127.927H106.61V136.881H88.0328V140.46H106.61V149.361H76.7129V115.492H106.61V124.392H88.0328Z" stroke="black" stroke-width="6.84"/>
<path d="M133.659 145.924H121.465L120.546 149.361H108.789L118.661 115.492H136.463L146.336 149.361H134.579L133.659 145.924ZM131.24 136.881L127.947 124.445H127.17L123.877 136.881H131.233H131.24Z" stroke="black" stroke-width="6.84"/>
<path d="M155.432 124.445H145.371V115.492H176.821V124.445H166.76V149.361H155.44V124.445H155.432Z" stroke="black" stroke-width="6.84"/>
<path d="M178.027 132.381C178.027 122.757 185.865 114.964 195.489 114.964C205.114 114.964 212.952 122.749 212.952 132.381C212.952 142.013 205.114 149.843 195.489 149.843C185.865 149.843 178.027 142.058 178.027 132.381ZM201.737 132.381C201.737 128.944 198.934 126.141 195.497 126.141C192.06 126.141 189.257 128.944 189.257 132.381C189.257 135.818 192.06 138.674 195.497 138.674C198.934 138.674 201.737 135.871 201.737 132.381Z" stroke="black" stroke-width="6.84"/>
<path d="M233.233 136.828H227.912V149.361H216.592V115.492H240.543C247.416 115.492 251.577 119.456 251.577 126.231C251.577 130.731 248.577 134.356 244.56 135.954L252.684 149.354H240.392L233.233 136.82V136.828ZM227.912 127.972H238.41C239.473 127.972 240.249 127.249 240.249 126.133C240.249 124.92 239.473 124.392 238.41 124.392H227.912V127.972Z" stroke="black" stroke-width="6.84"/>
<path d="M255.247 140.408H272.905C274.405 140.408 275.128 139.729 275.128 138.614C275.128 137.498 274.405 136.873 272.852 136.873H264.818C259.158 136.873 254.561 132.999 254.561 126.179C254.561 118.34 259.927 115.484 265.353 115.484H285.386V124.438H268.112C266.808 124.438 265.889 124.92 265.889 126.133C265.889 127.347 266.808 127.927 268.112 127.927H275.656C282.137 127.927 286.448 131.748 286.448 138.569C286.448 145.005 281.61 149.361 275.324 149.361H255.104L255.247 140.408Z" stroke="black" stroke-width="6.84"/>
<path d="M4 132.381C4 122.757 11.838 114.964 21.4622 114.964C26.4439 114.964 30.898 117.044 34.086 120.33L26.2028 128.311C25.0421 126.955 23.3464 126.133 21.4622 126.133C18.0256 126.133 15.222 128.937 15.222 132.374C15.222 135.81 18.0256 138.667 21.4622 138.667C23.3012 138.667 24.9969 137.845 26.1048 136.534L34.086 144.47C30.8905 147.763 26.3912 149.836 21.4622 149.836C11.838 149.836 4 142.051 4 132.374V132.381Z" fill="white"/>
<path d="M53.6359 136.828H48.3151V149.361H36.9951V115.492H60.9464C67.8197 115.492 71.9799 119.456 71.9799 126.231C71.9799 130.731 68.9804 134.356 64.9634 135.954L73.0878 149.354H60.7956L53.6359 136.82V136.828ZM48.3151 127.972H58.8135C59.8762 127.972 60.6524 127.249 60.6524 126.133C60.6524 124.92 59.8762 124.392 58.8135 124.392H48.3151V127.972Z" fill="white"/>
<path d="M88.0328 124.392V127.927H106.61V136.881H88.0328V140.46H106.61V149.361H76.7129V115.492H106.61V124.392H88.0328Z" fill="white"/>
<path d="M133.659 145.924H121.465L120.546 149.361H108.789L118.661 115.492H136.463L146.336 149.361H134.579L133.659 145.924ZM131.24 136.881L127.947 124.445H127.17L123.877 136.881H131.233H131.24Z" fill="white"/>
<path d="M155.432 124.445H145.371V115.492H176.821V124.445H166.76V149.361H155.44V124.445H155.432Z" fill="white"/>
<path d="M178.027 132.381C178.027 122.757 185.865 114.964 195.489 114.964C205.114 114.964 212.952 122.749 212.952 132.381C212.952 142.013 205.114 149.843 195.489 149.843C185.865 149.843 178.027 142.058 178.027 132.381ZM201.737 132.381C201.737 128.944 198.934 126.141 195.497 126.141C192.06 126.141 189.257 128.944 189.257 132.381C189.257 135.818 192.06 138.674 195.497 138.674C198.934 138.674 201.737 135.871 201.737 132.381Z" fill="white"/>
<path d="M233.233 136.828H227.912V149.361H216.592V115.492H240.543C247.416 115.492 251.577 119.456 251.577 126.231C251.577 130.731 248.577 134.356 244.56 135.954L252.684 149.354H240.392L233.233 136.82V136.828ZM227.912 127.972H238.41C239.473 127.972 240.249 127.249 240.249 126.133C240.249 124.92 239.473 124.392 238.41 124.392H227.912V127.972Z" fill="white"/>
<path d="M255.247 140.408H272.905C274.405 140.408 275.128 139.729 275.128 138.614C275.128 137.498 274.405 136.873 272.852 136.873H264.818C259.158 136.873 254.561 132.999 254.561 126.179C254.561 118.34 259.927 115.484 265.353 115.484H285.386V124.438H268.112C266.808 124.438 265.889 124.92 265.889 126.133C265.889 127.347 266.808 127.927 268.112 127.927H275.656C282.137 127.927 286.448 131.748 286.448 138.569C286.448 145.005 281.61 149.361 275.324 149.361H255.104L255.247 140.408Z" fill="white"/>
<path d="M301.212 148.404L248.46 153.168L251.248 184.04L304 179.277L301.212 148.404Z" fill="#FAFF00"/>
<path d="M274.917 157.606L276.5 175.166L270.629 175.694L270.041 169.22L262.994 169.853L263.582 176.327L257.711 176.855L256.129 159.294L262 158.767L262.58 165.21L269.627 164.577L269.046 158.134L274.917 157.606Z" fill="black"/>
<path d="M291.777 173.78L291.294 173.169C290.164 173.855 288.867 174.3 287.466 174.428C282.476 174.88 278.045 171.21 277.593 166.19C277.141 161.201 280.841 156.792 285.83 156.34C290.819 155.888 295.251 159.558 295.703 164.555C295.861 166.333 295.515 168.037 294.761 169.521L297.58 173.29L291.784 173.787L291.777 173.78ZM287.631 168.489L285.657 165.964L289.87 165.587C289.877 165.406 289.892 165.256 289.87 165.082C289.712 163.304 288.121 161.977 286.343 162.136C284.564 162.294 283.238 163.884 283.396 165.663C283.562 167.471 285.144 168.79 286.923 168.632C287.172 168.609 287.398 168.564 287.616 168.496L287.631 168.489Z" fill="black"/>
</svg>
