<svg width="76" height="76" viewBox="0 0 76 76" fill="none" xmlns="http://www.w3.org/2000/svg">
<path d="M38 0C30.4843 0 23.1374 2.22866 16.8883 6.40415C10.6393 10.5796 5.76872 16.5144 2.89259 23.458C0.0164649 30.4016 -0.736062 38.0421 0.730176 45.4134C2.19641 52.7847 5.81556 59.5556 11.13 64.87C16.4444 70.1844 23.2153 73.8036 30.5866 75.2698C37.9579 76.7361 45.5984 75.9835 52.542 73.1074C59.4856 70.2313 65.4204 65.3607 69.5958 59.1117C73.7713 52.8626 76 45.5157 76 38C76 27.9218 71.9964 18.2563 64.8701 11.1299C57.7437 4.00356 48.0782 0 38 0V0ZM38 69.6666C31.7369 69.6666 25.6145 67.8094 20.407 64.3299C15.1994 60.8503 11.1406 55.9046 8.74383 50.1183C6.34706 44.332 5.71995 37.9649 6.94182 31.8221C8.16368 25.6794 11.1796 20.0369 15.6083 15.6083C20.037 11.1796 25.6794 8.16366 31.8222 6.9418C37.9649 5.71993 44.332 6.34704 50.1183 8.74381C55.9046 11.1406 60.8503 15.1994 64.3299 20.4069C67.8095 25.6145 69.6667 31.7369 69.6667 38C69.6667 42.1585 68.8476 46.2763 67.2562 50.1183C65.6648 53.9603 63.3322 57.4512 60.3917 60.3917C57.4512 63.3322 53.9603 65.6648 50.1183 67.2562C46.2763 68.8476 42.1585 69.6666 38 69.6666V69.6666Z" fill="#D83010"/>
<path d="M38.0006 44.5549C36.9088 44.5549 35.8617 44.1211 35.0897 43.3491C34.3177 42.5771 33.8839 41.53 33.8839 40.4382V21.4382C33.8839 20.3464 34.3177 19.2993 35.0897 18.5273C35.8617 17.7553 36.9088 17.3215 38.0006 17.3215C39.0924 17.3215 40.1395 17.7553 40.9115 18.5273C41.6836 19.2993 42.1173 20.3464 42.1173 21.4382V40.4382C42.1173 41.53 41.6836 42.5771 40.9115 43.3491C40.1395 44.1211 39.0924 44.5549 38.0006 44.5549Z" fill="#D83010"/>
<path d="M37.8423 58.6467C40.4656 58.6467 42.5923 56.5201 42.5923 53.8967C42.5923 51.2734 40.4656 49.1467 37.8423 49.1467C35.2189 49.1467 33.0923 51.2734 33.0923 53.8967C33.0923 56.5201 35.2189 58.6467 37.8423 58.6467Z" fill="#D83010"/>
</svg>
